<svg height="511pt" viewBox="-75 1 511 511.999" width="511pt" xmlns="http://www.w3.org/2000/svg"><path d="m258.582031 261.597656h-21.476562c-6.074219 0-11-4.925781-11-11.003906v-94.019531h43.480469v94.019531c0 6.078125-4.925782 11.003906-11.003907 11.003906zm0 0" fill="#bddff4"/><path d="m269.582031 156.578125v94.015625c0 6.078125-4.921875 11.003906-11.003906 11.003906h-18.777344c6.078125 0 11.003907-4.921875 11.003907-11.003906v-94.015625zm0 0" fill="#9cc6db"/><path d="m284.78125 162.625h-73.875c-6.074219 0-11-4.925781-11-11v-52.074219h95.878906v52.074219c0 6.078125-4.925781 11-11.003906 11zm0 0" fill="#e3f4ff"/><path d="m295.785156 99.550781v52.074219c0 6.078125-4.925781 11.003906-11.003906 11.003906h-21.742188c6.082032 0 11.003907-4.925781 11.003907-11.003906v-52.074219zm0 0" fill="#bddff4"/><path d="m317.140625 125.585938h-152.449219c-7.285156 0-12.558594-6.949219-10.597656-13.960938l26.855469-96.085938c1.332031-4.753906 5.660156-8.039062 10.597656-8.039062h152.449219c7.28125 0 12.558594 6.949219 10.597656 13.964844l-26.859375 96.082031c-1.328125 4.753906-5.65625 8.039063-10.59375 8.039063zm0 0" fill="#64bdff"/><path d="m282.371094 7.496094-33.007813 118.085937h-56.476562l33.007812-118.085937zm0 0" fill="#43a3f9"/><path d="m354.589844 21.460938-26.851563 96.089843c-1.332031 4.746094-5.664062 8.03125-10.597656 8.03125h-23.023437c4.933593 0 9.265624-3.285156 10.585937-8.03125l26.863281-96.089843c1.964844-7.015626-3.316406-13.964844-10.597656-13.964844h23.023438c7.292968 0 12.5625 6.949218 10.597656 13.964844zm0 0" fill="#43a3f9"/><path d="m266.078125 125.585938h-56.476563l33.007813-118.085938h56.476563zm0 0" fill="#1685fb"/><path d="m299.082031 7.496094-33 118.085937h-16.71875l33.007813-118.085937zm0 0" fill="#4c60e1"/><path d="m48.53125 162.0625h44.722656v96.488281h-44.722656zm0 0" fill="#bddff4"/><path d="m74.78125 162.0625h18.472656v96.488281h-18.472656zm0 0" fill="#9cc6db"/><path d="m295.117188 461.191406h-263.410157v-193.074218l131.703125-77.242188 131.707032 77.242188zm0 0" fill="#43a3f9"/><path d="m295.113281 268.121094v193.074218h-23.703125v-206.980468zm0 0" fill="#1685fb"/><path d="m314.457031 269.175781-146.574219-85.964843c-2.761718-1.617188-6.183593-1.617188-8.945312 0l-146.574219 85.964843c-2.703125 1.585938-4.367187 4.484375-4.367187 7.621094v16.320313c0 6.832031 7.417968 11.082031 13.3125 7.625l137.628906-80.714844c2.761719-1.621094 6.183594-1.621094 8.945312 0l137.628907 80.714844c5.894531 3.457031 13.3125-.792969 13.3125-7.625v-16.320313c0-3.136719-1.660157-6.035156-4.367188-7.621094zm0 0" fill="#fd9e28"/><path d="m96.605469 181.996094h-51.425781c-6.074219 0-11-4.925782-11-11v-14.832032c0-6.078124 4.925781-11.003906 11-11.003906h51.425781c6.074219 0 11 4.925782 11 11.003906v14.832032c.003906 6.074218-4.921875 11-11 11zm0 0" fill="#fd9e28"/><path d="m107.605469 156.160156v14.832032c0 6.078124-4.921875 11.007812-11 11.007812h-18.5c6.078125 0 11-4.929688 11-11.007812v-14.832032c0-6.078125-4.921875-11-11-11h18.5c6.078125 0 11 4.921875 11 11zm0 0" fill="#fd8724"/><path d="m307.820312 481.121094h-288.820312c-6.074219 0-11-4.925782-11-11.003906v-7.699219c0-6.078125 4.925781-11.003907 11-11.003907h288.824219c6.074219 0 11 4.925782 11 11.003907v7.699219c0 6.078124-4.925781 11.003906-11.003907 11.003906zm0 0" fill="#fd9e28"/><path d="m210.722656 388.363281h-29.695312l15.476562-74.761719c2.40625-11.605468-12.71875-18.285156-19.675781-8.691406l-69.632813 95.960938c-5.277343 7.273437-.082031 17.460937 8.90625 17.460937h29.578126l-13.425782 73.113281c-2.121094 11.546876 12.898438 17.941407 19.753906 8.410157l67.644532-94.066407c5.234375-7.277343.035156-17.425781-8.929688-17.425781zm0 0" fill="#fede93"/><path d="m358.734375 7.316406c-3.527344-4.648437-8.898437-7.316406-14.738281-7.316406h-152.449219c-8.265625 0-15.59375 5.5625-17.820313 13.519531l-26.855468 96.085938c-1.570313 5.621093-.449219 11.511719 3.082031 16.164062 3.527344 4.648438 8.898437 7.316407 14.738281 7.316407h27.714844v18.539062c0 10.199219 8.300781 18.5 18.5 18.5h7.699219v34.136719l-46.929688-27.519531c-5.097656-2.992188-11.433593-2.988282-16.53125 0l-54.390625 31.898437v-19.632813c8.207032-1.886718 14.351563-9.238281 14.351563-18.015624v-14.832032c0-10.199218-8.296875-18.5-18.5-18.5h-51.425781c-10.203126 0-18.5 8.300782-18.5 18.5v14.832032c0 8.777343 6.144531 16.128906 14.351562 18.015624v54.65625l-32.460938 19.039063c-4.976562 2.921875-8.070312 8.320313-8.070312 14.09375v16.320313c0 5.929687 3.070312 11.230468 8.21875 14.179687 4.847656 2.777344 10.5625 2.90625 15.488281.402344v136.214843h-5.207031c-10.199219 0-18.5 8.300782-18.5 18.5v7.703126c0 10.199218 8.300781 18.5 18.5 18.5h106.148438l-.269532 1.472656c-1.601562 8.710937 2.800782 16.894531 10.949219 20.363281 2.445313 1.042969 4.964844 1.546875 7.433594 1.546875 5.75 0 11.214843-2.734375 14.835937-7.769531l11.226563-15.613281h138.5c10.199219 0 18.5-8.300782 18.5-18.5v-7.703126c0-10.199218-8.300781-18.5-18.5-18.5h-5.207031v-69.773437c0-4.144531-3.359376-7.5-7.5-7.5-4.144532 0-7.5 3.355469-7.5 7.5v69.773437h-12.859376c-4.140624 0-7.5 3.355469-7.5 7.5 0 4.140626 3.359376 7.5 7.5 7.5h33.066407c1.929687 0 3.5 1.570313 3.5 3.5v7.703126c0 1.929687-1.570313 3.5-3.5 3.5h-127.710938l10.574219-14.703126h49.550781c4.140625 0 7.5-3.359374 7.5-7.5 0-4.144531-3.359375-7.5-7.5-7.5h-38.765625l24.269532-33.746093c4.070312-5.660157 4.625-13.035157 1.445312-19.242188-3.183594-6.207031-9.492188-10.0625-16.464844-10.0625h-20.484375l13.609375-65.742187c1.8125-8.753906-2.460937-17.0625-10.640625-20.675782-8.175781-3.613281-17.199219-1.175781-22.449219 6.058594l-27.398437 37.757813c-2.433594 3.351562-1.6875 8.042969 1.667969 10.476562 3.351562 2.433594 8.039062 1.683594 10.472656-1.667969l27.398438-37.757812c1.445312-1.992188 3.285156-1.574219 4.25-1.144531.964843.425781 2.511718 1.503906 2.011718 3.914062l-15.476562 74.761719c-.460938 2.210938.101562 4.507812 1.527344 6.257812 1.421874 1.75 3.558593 2.765626 5.816406 2.765626h29.695312c1.929688 0 2.820313 1.332031 3.113282 1.902343.292968.574219.855468 2.074219-.269532 3.644531l-67.648437 94.0625c-1.421875 1.980469-3.253907 1.585938-4.214844 1.179688-.964844-.410156-2.511719-1.457031-2.074219-3.855469l13.429688-73.109375c.402344-2.191406-.1875-4.445312-1.613282-6.15625-1.425781-1.710937-3.539062-2.699218-5.765624-2.699218h-29.578126c-1.9375 0-2.828124-1.335938-3.121093-1.910157s-.855469-2.082031.285156-3.648437l21.78125-30.015625c2.429687-3.351563 1.683594-8.042969-1.667969-10.476563-3.355468-2.433594-8.042968-1.683594-10.472656 1.667969l-21.78125 30.015625c-4.105469 5.65625-4.683594 13.042969-1.507812 19.269531 3.175781 6.226563 9.492187 10.097657 16.480468 10.097657h20.582032l-3.320313 18.082031h-94.15625v-144.976563l123.527344-72.445312c.417969-.246094.9375-.246094 1.355469 0l123.527343 72.445312v41.015625c0 4.144531 3.359375 7.5 7.5 7.5s7.5-3.355469 7.5-7.5v-32.257812c2.335938 1.1875 4.851563 1.785156 7.367188 1.785156 2.785156 0 5.574219-.730469 8.121093-2.191406 5.148438-2.945313 8.21875-8.246094 8.21875-14.175781v-16.320313c0-5.769531-3.09375-11.171875-8.070312-14.09375l-41.167969-24.140625v-68.433594h7.699219c10.199219 0 18.5-8.300781 18.5-18.503906v-18.539062h13.855469c8.265625 0 15.59375-5.558594 17.820312-13.519532l26.855469-96.082031c1.574219-5.625.449219-11.515625-3.078125-16.167969zm-230.832031 466.304688h-108.902344c-1.929688 0-3.5-1.574219-3.5-3.503906v-7.699219c0-1.933594 1.570312-3.503907 3.5-3.503907h111.605469zm218.882812-457.234375c.394532.515625.992188 1.601562.585938 3.058593l-10.148438 36.296876h-43.835937l11.386719-40.742188h39.222656c1.511718 0 2.398437.867188 2.789062 1.386719zm-57.582031-1.386719-11.390625 40.742188h-40.902344l11.390625-40.742188zm-56.484375 55.742188h40.902344l-13.234375 47.34375h-40.898438zm-44.546875-53.183594c.421875-1.507813 1.808594-2.558594 3.375-2.558594h41.179687l-11.390624 40.742188h-43.835938zm-26.269531 99.144531c-.394532-.519531-.992188-1.605469-.585938-3.0625l11.992188-42.898437h43.835937l-13.234375 47.34375h-39.21875c-1.511718 0-2.398437-.867188-2.789062-1.382813zm-120.222656 39.460937c0-1.933593 1.570312-3.503906 3.5-3.503906h51.425781c1.929687 0 3.5 1.570313 3.5 3.503906v14.832032c0 1.929687-1.570313 3.5-3.5 3.5h-51.425781c-1.929688 0-3.5-1.570313-3.5-3.5zm14.351562 33.332032h29.722656v27.941406l-29.722656 17.433594zm255.292969 87.300781v16.320313c0 .515624-.226563.90625-.671875 1.164062-.449219.253906-.902344.253906-1.34375-.007812l-137.632813-80.71875c-2.546875-1.492188-5.40625-2.242188-8.265625-2.242188-2.855468 0-5.714844.75-8.265625 2.242188l-137.628906 80.71875c-.445313.261718-.898437.261718-1.34375.007812-.445313-.257812-.675781-.648438-.675781-1.164062v-16.320313c0-.472656.253906-.914063.664062-1.152344l146.574219-85.964843c.414063-.242188.9375-.246094 1.351563 0l146.574218 85.964843c.410156.238281.664063.679688.664063 1.152344zm-49.238281-47.035156-28.480469-16.699219v-42.933594h28.480469zm26.199218-78.136719c0 1.933594-1.570312 3.503906-3.503906 3.503906h-73.871094c-1.933594 0-3.503906-1.570312-3.503906-3.503906v-18.539062h80.878906zm32.226563-36.097656c-.417969 1.507812-1.804688 2.558594-3.371094 2.558594h-41.179687l13.234374-47.34375h43.835938zm0 0"/></svg>