<svg height="511pt" viewBox="-11 0 511 511.23872" width="511pt" xmlns="http://www.w3.org/2000/svg" xmlns:xlink="http://www.w3.org/1999/xlink"><clipPath id="a"><path d="m8 439h465v17h-465zm0 0"/></clipPath><clipPath id="b"><path d="m407.960938 391.238281h-63.839844l-16-.40625c-4.480469-.007812-8.933594-.632812-13.242188-1.855469l-74.757812 81.855469-74.761719-81.855469c-4.308594 1.222657-8.761719 1.847657-13.238281 1.855469l-16 .40625h-63.839844c-35.4375 0-64.160156 28.726563-64.160156 64.160157v47.839843h464v-47.839843c0-35.433594-28.726563-64.160157-64.160156-64.160157zm0 0"/></clipPath><clipPath id="c"><path d="m8 407h465v17h-465zm0 0"/></clipPath><clipPath id="d"><path d="m407.960938 391.238281h-63.839844l-16-.40625c-4.480469-.007812-8.933594-.632812-13.242188-1.855469l-74.757812 81.855469-74.761719-81.855469c-4.308594 1.222657-8.761719 1.847657-13.238281 1.855469l-16 .40625h-63.839844c-35.4375 0-64.160156 28.726563-64.160156 64.160157v47.839843h464v-47.839843c0-35.433594-28.726563-64.160157-64.160156-64.160157zm0 0"/></clipPath><clipPath id="e"><path d="m8 471h465v17h-465zm0 0"/></clipPath><clipPath id="f"><path d="m407.960938 391.238281h-63.839844l-16-.40625c-4.480469-.007812-8.933594-.632812-13.242188-1.855469l-74.757812 81.855469-74.761719-81.855469c-4.308594 1.222657-8.761719 1.847657-13.238281 1.855469l-16 .40625h-63.839844c-35.4375 0-64.160156 28.726563-64.160156 64.160157v47.839843h464v-47.839843c0-35.433594-28.726563-64.160157-64.160156-64.160157zm0 0"/></clipPath><clipPath id="g"><path d="m8 388h465v4h-465zm0 0"/></clipPath><clipPath id="h"><path d="m407.960938 391.238281h-63.839844l-16-.40625c-4.480469-.007812-8.933594-.632812-13.242188-1.855469l-74.757812 81.855469-74.761719-81.855469c-4.308594 1.222657-8.761719 1.847657-13.238281 1.855469l-16 .40625h-63.839844c-35.4375 0-64.160156 28.726563-64.160156 64.160157v47.839843h464v-47.839843c0-35.433594-28.726563-64.160157-64.160156-64.160157zm0 0"/></clipPath><clipPath id="i"><path d="m8 471h465v17h-465zm0 0"/></clipPath><clipPath id="j"><path d="m407.960938 391.238281h-63.839844l-16-.40625c-4.480469-.007812-8.933594-.632812-13.242188-1.855469l-74.757812 81.855469-74.761719-81.855469c-4.308594 1.222657-8.761719 1.847657-13.238281 1.855469l-16 .40625h-63.839844c-35.4375 0-64.160156 28.726563-64.160156 64.160157v47.839843h464v-47.839843c0-35.433594-28.726563-64.160157-64.160156-64.160157zm0 0"/></clipPath><path d="m200.121094 343.238281h-144v-152c0-101.621093 82.378906-184 184-184 101.617187 0 184 82.378907 184 184v152h-144" fill="#4f3328"/><path d="m168.121094 21.871094v65.367187h16v-71.296875c-5.453125 1.746094-10.785156 3.722656-16 5.929688zm0 0" fill="#422e28"/><path d="m280.121094 343.238281c.007812 12.691407 5.082031 24.851563 14.09375 33.785157 9.011718 8.9375 21.214844 13.90625 33.90625 13.808593l16 .40625h63.839844c35.433593 0 64.160156 28.726563 64.160156 64.160157v47.839843h-464v-47.839843c0-35.433594 28.722656-64.160157 64.160156-64.160157h63.839844l16-.40625c12.6875.097657 24.890625-4.871093 33.902344-13.808593 9.011718-8.933594 14.085937-21.09375 14.097656-33.785157v-32h80zm0 0" fill="#f7cca9"/><path d="m281.238281 353.453125c-.738281-3.351563-1.113281-6.777344-1.117187-10.214844v-32h-80v32c-.003906 3.4375-.382813 6.863281-1.121094 10.214844 26.871094 7.714844 55.367188 7.714844 82.238281 0zm0 0" fill="#efbb95"/><path d="m80.121094 159.238281c-13.257813 0-24 14.328125-24 32s10.742187 32 24 32h16v-64zm0 0" fill="#efbb95"/><path d="m400.121094 159.238281h-16v64h16c13.253906 0 24-14.328125 24-32s-10.746094-32-24-32zm0 0" fill="#efbb95"/><path d="m304.121094 103.238281c-67.503906 0-117.347656-21.449219-128-48-48.683594 25.335938-88 77.328125-88 136 0 83.949219 68.050781 152 152 152 83.945312 0 152-68.050781 152-152 .003906-34.621093-11.226563-68.304687-32-96-18.375 4.429688-37.125 7.109375-56 8zm0 0" fill="#f7cca9"/><path d="m272.121094 215.238281c0 17.671875-14.328125 32-32 32-17.675782 0-32-14.328125-32-32zm0 0" fill="#e5703e"/><g fill="#915c39"><path d="m168.121094 191.238281c-8.839844 0-16-7.164062-16-16 0-8.835937 7.160156-16 16-16 8.835937 0 16 7.164063 16 16 0 8.835938-7.164063 16-16 16zm0-16"/><path d="m128.121094 175.238281c-4.421875 0-8-3.582031-8-8 .023437-22.078125 17.917968-39.972656 40-40 4.417968 0 8 3.582031 8 8s-3.582032 8-8 8c-13.257813 0-24 10.746094-24 24 0 4.417969-3.582032 8-8 8zm0 0"/><path d="m312.121094 191.238281c-8.839844 0-16-7.164062-16-16 0-8.835937 7.160156-16 16-16 8.835937 0 16 7.164063 16 16 0 8.835938-7.164063 16-16 16zm0-16"/><path d="m352.121094 175.238281c-4.421875 0-8-3.582031-8-8 0-13.253906-10.746094-24-24-24-4.421875 0-8-3.582031-8-8s3.578125-8 8-8c22.078125.027344 39.972656 17.921875 40 40 0 4.417969-3.582032 8-8 8zm0 0"/></g><path d="m407.960938 391.238281h-63.839844l-16-.40625c-4.480469-.007812-8.933594-.632812-13.242188-1.855469l-74.757812 81.855469-74.761719-81.855469c-4.308594 1.222657-8.761719 1.847657-13.238281 1.855469l-16 .40625h-63.839844c-35.4375 0-64.160156 28.726563-64.160156 64.160157v47.839843h464v-47.839843c0-35.433594-28.726563-64.160157-64.160156-64.160157zm0 0" fill="#b27680"/><path d="m360.121094 223.238281c0 13.253907-10.746094 24-24 24-13.257813 0-24-10.746093-24-24 0-13.253906 10.742187-24 24-24 13.253906 0 24 10.746094 24 24zm0 0" fill="#f4b8b2"/><path d="m168.121094 223.238281c0 13.253907-10.746094 24-24 24-13.257813 0-24-10.746093-24-24 0-13.253906 10.742187-24 24-24 13.253906 0 24 10.746094 24 24zm0 0" fill="#f4b8b2"/><g clip-path="url(#a)"><g clip-path="url(#b)"><path d="m-7.878906 439.238281h488v16h-488zm0 0" fill="#f6f0fe"/></g></g><g clip-path="url(#c)"><g clip-path="url(#d)" fill="#f6f0fe"><path d="m-7.878906 407.238281h488v16h-488zm0 0"/><path d="m-7.878906 407.238281h488v16h-488zm0 0"/></g></g><g clip-path="url(#e)"><g clip-path="url(#f)"><path d="m-7.878906 471.238281h488v16h-488zm0 0" fill="#f6f0fe"/></g></g><g clip-path="url(#g)"><g clip-path="url(#h)"><path d="m-7.878906 375.238281h488v16h-488zm0 0" fill="#f6f0fe"/></g></g><g clip-path="url(#i)"><g clip-path="url(#j)"><path d="m-7.878906 471.238281h488v16h-488zm0 0" fill="#f6f0fe"/></g></g><path d="m248.121094 191.238281h-16c-2.464844 0-4.792969-1.136719-6.308594-3.078125s-2.050781-4.476562-1.453125-6.867187l8-32c1.097656-4.253907 5.425781-6.828125 9.691406-5.757813 4.261719 1.066406 6.867188 5.375 5.828125 9.648438l-5.511718 22.054687h5.753906c4.417968 0 8 3.582031 8 8s-3.582032 8-8 8zm0 0" fill="#915c39"/><path d="m407.960938 383.238281h-63.640626l-16.199218-.40625c-18.886719.042969-35.230469-13.128906-39.203125-31.59375h135.203125c4.417968 0 8-3.582031 8-8v-160h-.203125c-4.683594-102.523437-89.167969-183.238281-191.796875-183.238281-102.632813 0-187.117188 80.714844-191.800782 183.238281h-.199218v160c0 4.417969 3.578125 8 8 8h135.199218c-4.003906 18.519531-20.429687 31.703125-39.375 31.601563l-15.824218.398437h-63.839844c-39.835938.042969-72.117188 32.324219-72.160156 72.160157v47.839843c0 4.417969 3.578125 8 8 8h464c4.417968 0 8-3.582031 8-8v-47.839843c-.046875-39.835938-32.328125-72.117188-72.160156-72.160157zm-311.839844-192c0-48.65625 30.550781-98 76.796875-125.070312 17.96875 27.269531 68.800781 45.070312 131.203125 45.070312 15.871094-.453125 31.660156-2.5 47.125-6.105469l5.457031-1.085937c17.878906 25.558594 27.449219 56 27.417969 87.191406 0 79.53125-64.472656 144-144 144-79.53125 0-144-64.46875-144-144zm213.277344 144c42.355468-20.460937 73.597656-58.480469 85.457031-104h5.265625c5.792968-.109375 11.402344-2.070312 16-5.597656v109.597656zm90.722656-120h-2c1.269531-7.9375 1.9375-15.960937 2-24-.042969-8.03125-.65625-16.054687-1.839844-24h1.839844c8.671875 0 16 10.992188 16 24 0 13.007813-7.328125 24-16 24zm12.054687-61.007812c-3.726562-1.941407-7.855469-2.964844-12.054687-2.992188h-4.867188c-5.234375-22.09375-15.042968-42.839843-28.796875-60.902343-1.839843-2.371094-4.847656-3.511719-7.792969-2.960938-3.449218.648438-6.976562 1.351562-10.570312 2.070312-14.425781 3.398438-29.160156 5.339844-43.972656 5.792969-66.625 0-110.335938-20.855469-120-41.832031v-28.984375c47.488281-15.976563 99.542968-10.941406 143.089844 13.84375 43.546874 24.789063 74.453124 66.972656 84.964843 115.964844zm-244.054687-123.527344v19.863281c-39.515625 21.503906-69.015625 57.652344-82.167969 100.671875h-5.832031c-4.199219.027344-8.332032 1.050781-12.058594 2.992188 11.890625-54.707031 49.011719-100.535157 100.058594-123.527344zm-88 136.535156h2.140625c-1.394531 7.925781-2.113281 15.953125-2.140625 24 .058594 8.039063.726562 16.0625 2 24h-2c-8.671875 0-16-10.992187-16-24 0-13.007812 7.328125-24 16-24zm-16 58.441407c4.59375 3.527343 10.203125 5.492187 16 5.597656h5.261718c11.871094 45.503906 43.109376 83.507812 85.457032 103.960937h-106.71875zm143.757812 122.296874c21.273438 4.351563 43.207032 4.351563 64.480469 0 1.621094 18.332032 12.203125 34.679688 28.265625 43.671876l-60.503906 67.230468-60.523438-67.257812c16.070313-8.972656 26.660156-25.3125 28.28125-43.644532zm256.242188 147.261719h-448v-39.839843c.035156-31 25.15625-56.125 56.160156-56.160157h64l15.839844-.40625c3.824218 0 7.640625-.386719 11.390625-1.160156l70.664062 78.511719c1.515625 1.683594 3.675781 2.644531 5.945313 2.644531 2.265625 0 4.425781-.960937 5.941406-2.644531l70.640625-78.488282c3.6875.753907 7.4375 1.136719 11.199219 1.136719l16.21875.40625h63.839844c31 .035157 56.125 25.160157 56.160156 56.160157zm0 0"/><path d="m184.121094 175.238281c0 8.835938-7.164063 16-16 16-8.839844 0-16-7.164062-16-16 0-8.835937 7.160156-16 16-16 8.835937 0 16 7.164063 16 16zm0 0"/><path d="m168.121094 135.238281c0-4.417969-3.582032-8-8-8-22.082032.027344-39.976563 17.921875-40 40 0 4.417969 3.578125 8 8 8 4.417968 0 8-3.582031 8-8 0-13.253906 10.742187-24 24-24 4.417968 0 8-3.582031 8-8zm0 0"/><path d="m328.121094 175.238281c0 8.835938-7.164063 16-16 16-8.839844 0-16-7.164062-16-16 0-8.835937 7.160156-16 16-16 8.835937 0 16 7.164063 16 16zm0 0"/><path d="m320.121094 143.238281c13.253906 0 24 10.746094 24 24 0 4.417969 3.578125 8 8 8 4.417968 0 8-3.582031 8-8-.027344-22.078125-17.921875-39.972656-40-40-4.421875 0-8 3.582031-8 8s3.578125 8 8 8zm0 0"/><path d="m280.121094 215.238281c0-4.417969-3.582032-8-8-8h-64c-4.421875 0-8 3.582031-8 8 0 22.09375 17.90625 40 40 40 22.089844 0 40-17.90625 40-40zm-62.632813 8h45.261719c-3.386719 9.597657-12.453125 16.011719-22.628906 16.011719-10.175782 0-19.246094-6.414062-22.632813-16.011719zm0 0"/><path d="m232.121094 191.238281h16c4.417968 0 8-3.582031 8-8s-3.582032-8-8-8h-5.753906l5.511718-22.054687c1.039063-4.273438-1.566406-8.582032-5.828125-9.648438-4.265625-1.070312-8.59375 1.503906-9.691406 5.757813l-8 32c-.597656 2.390625-.0625 4.925781 1.453125 6.867187s3.84375 3.078125 6.308594 3.078125zm0 0"/></svg>