<svg height="512" viewBox="0 0 512 512" width="512" xmlns="http://www.w3.org/2000/svg"><g id="Male_Short_Hair_3" data-name="Male Short Hair 3"><circle cx="256.333" cy="256" fill="#79d1c9" r="248"/><path d="m433.25 82.229a255.416 255.416 0 0 1 14.75 85.771c0 141.385-114.615 256-256 256a254.82 254.82 0 0 1 -155.083-52.344 247.954 247.954 0 0 0 219.416 132.344c136.967 0 248-111.033 248-248a247.182 247.182 0 0 0 -71.083-173.771z" fill="#5fc4b8"/><path d="m344 464a88 88 0 0 0 -88-88 88 88 0 0 0 -88 88v23.787a248.753 248.753 0 0 0 176 .254z" fill="#ff9e80"/><path d="m232 360h48a0 0 0 0 1 0 0v24a24 24 0 0 1 -24 24 24 24 0 0 1 -24-24v-24a0 0 0 0 1 0 0z" fill="#f4c2b5"/><path d="m408 216h-8v-16a109.256 109.256 0 0 0 -77.255-32h-106.745a32 32 0 0 1 -32-32 52.181 52.181 0 0 0 -39.619 18.222l-32.381 37.778v24h-8a40 40 0 0 0 0 80h8v4a60 60 0 0 0 60 60h168a60 60 0 0 0 60-60v-4h8a40 40 0 0 0 0-80z" fill="#ffe7de"/><path d="m200 480a136.185 136.185 0 0 1 -32-3.812v11.6a248.753 248.753 0 0 0 176 .254v-24.042a87.667 87.667 0 0 0 -22.538-58.8 135.976 135.976 0 0 1 -121.462 74.8z" fill="#ff8b6c"/><path d="m448 256a40 40 0 0 0 -40-40h-4.651a252.563 252.563 0 0 1 -168.129 144h104.78a60 60 0 0 0 60-60v-4h8a40 40 0 0 0 40-40z" fill="#f9d8cd"/><g fill="#fff"><circle cx="168" cy="264" r="16"/><circle cx="344" cy="264" r="16"/><circle cx="140" cy="300" r="12"/><circle cx="372" cy="300" r="12"/></g><circle cx="204" cy="412" fill="#ffbdab" r="12"/><path d="m184 136a32 32 0 0 0 32 32h106.745a109.256 109.256 0 0 1 77.255 32v-16a128 128 0 0 0 -128-128h-43.156a53.9 53.9 0 0 0 -44.844 24 72 72 0 0 0 -72 72v40l32.381-37.778a52.181 52.181 0 0 1 39.619-18.222z" fill="#c97e67"/><circle cx="144" cy="112" fill="#e8beb3" r="16"/><circle cx="220" cy="76" fill="#e8beb3" r="12"/><path d="m356.783 88.115a124.2 124.2 0 0 1 -59.828 79.885h25.79a109.256 109.256 0 0 1 77.255 32v-16a127.683 127.683 0 0 0 -43.217-95.885z" fill="#c0694e"/><path d="m439.95 97.3a8 8 0 1 0 -5.92-2.62 8.006 8.006 0 0 0 5.92 2.62z"/><path d="m26.74 333.99a7.966 7.966 0 0 0 .55-6.09l-.01-.01a240.05 240.05 0 0 1 384.52-254.74 8 8 0 1 0 10.37-12.18 255 255 0 0 0 -165.82-60.97h-.02a257.974 257.974 0 0 0 -51.59 5.2 254.836 254.836 0 0 0 -91.54 38.52 257.108 257.108 0 0 0 -69.14 69.15 256.511 256.511 0 0 0 -32.04 219.81 7.963 7.963 0 0 0 7.63 5.61 8.11 8.11 0 0 0 2.39-.37 7.97 7.97 0 0 0 4.7-3.93z"/><path d="m500.24 178.02a254.438 254.438 0 0 0 -33.8-68.31 8.007 8.007 0 0 0 -6.569-3.42 8.008 8.008 0 0 0 -7.86 6.59 7.929 7.929 0 0 0 1.309 5.98 240.305 240.305 0 0 1 -101.32 357.369v-12.229a96.016 96.016 0 0 0 -36.142-75.044 8 8 0 1 0 -9.976 12.508 78.552 78.552 0 0 1 6.682 5.974 79.436 79.436 0 0 1 23.436 56.562v16a8.016 8.016 0 0 0 .361 2.383 237.826 237.826 0 0 1 -24.361 7.145v-41.528a8 8 0 0 0 -16 0v44.741a243.146 243.146 0 0 1 -80-.108v-44.633a8 8 0 0 0 -16 0v41.38a238.437 238.437 0 0 1 -24.308-7.2 7.979 7.979 0 0 0 .308-2.18v-16a79.638 79.638 0 0 1 30.122-62.538 8 8 0 0 0 -9.984-12.5 95.561 95.561 0 0 0 -36.138 75.038v11.977a239.711 239.711 0 0 1 -106.79-92.077 8 8 0 1 0 -13.53 8.54 256.161 256.161 0 0 0 452.53-36.79 254.074 254.074 0 0 0 14.92-48.06 257.918 257.918 0 0 0 -6.89-129.57z"/><path d="m38.44 356.75-.01-.01a8.013 8.013 0 0 0 -7.26-4.64 8.008 8.008 0 0 0 -7.25 11.37l.09.2v-.01a8.033 8.033 0 0 0 7.17 4.44 7.835 7.835 0 0 0 3.36-.74 7.99 7.99 0 0 0 3.9-10.61z"/><path d="m256 416a32.036 32.036 0 0 0 32-32v-16h52a68.089 68.089 0 0 0 67.884-64h.116a48 48 0 0 0 0-96v-24c0-74.991-61.01-136-136-136h-43.156a61.761 61.761 0 0 0 -49.024 24.108 80.1 80.1 0 0 0 -75.82 79.892v56a48 48 0 0 0 0 96h.116a68.09 68.09 0 0 0 67.884 64h52v16a32.036 32.036 0 0 0 32 32zm16-32a16 16 0 0 1 -32 0v-16h32zm-80-248.022a39.788 39.788 0 0 0 24 8.022h106.745a101.255 101.255 0 0 1 27.112 3.7 8 8 0 0 0 4.286-15.416 117.261 117.261 0 0 0 -31.4-4.281h-106.743a24.034 24.034 0 0 1 -23.651-19.951 31.309 31.309 0 0 0 15.651 3.948h120a8 8 0 0 0 0-16h-120c-11.034 0-14.814-9.023-15.746-13.806a45.8 45.8 0 0 1 36.59-18.194h43.156a120.133 120.133 0 0 1 119.982 118.6 116.378 116.378 0 0 0 -69.237-22.6h-106.745a24.027 24.027 0 0 1 -24-24zm-72 16.022a64.081 64.081 0 0 1 56-63.482v40.036a60.082 60.082 0 0 0 -37.693 20.462l-18.307 21.358zm52 200a52.059 52.059 0 0 1 -52-52v-12h-16a32 32 0 0 1 0-64v8a8 8 0 0 0 16 0v-37.04l30.455-35.531a44.127 44.127 0 0 1 26.469-14.861 40.07 40.07 0 0 0 39.076 31.432h106.745a100.538 100.538 0 0 1 69.255 27.4v28.6a8 8 0 0 0 16 0v-8a32 32 0 0 1 0 64h-16v12a52.059 52.059 0 0 1 -52 52z"/><circle cx="112" cy="264" r="8"/><circle cx="400" cy="264" r="8"/><path d="m168 240a24 24 0 1 0 24 24 24.027 24.027 0 0 0 -24-24zm0 32a8 8 0 1 1 8-8 8.009 8.009 0 0 1 -8 8z"/><path d="m368 264a24 24 0 1 0 -24 24 24.027 24.027 0 0 0 24-24zm-32 0a8 8 0 1 1 8 8 8.009 8.009 0 0 1 -8-8z"/><path d="m192 208h-48a8 8 0 0 0 0 16h48a8 8 0 0 0 0-16z"/><path d="m368 224a8 8 0 0 0 0-16h-48a8 8 0 0 0 0 16z"/><path d="m275.563 290.077a35.176 35.176 0 0 1 -39.125 0 8 8 0 1 0 -8.875 13.313 51.134 51.134 0 0 0 56.875 0 8 8 0 0 0 -8.875-13.313z"/></g></svg>