<?xml version="1.0" encoding="iso-8859-1"?>
<!-- Generator: Adobe Illustrator 19.0.0, SVG Export Plug-In . SVG Version: 6.00 Build 0)  -->
<svg version="1.1" id="Capa_1" xmlns="http://www.w3.org/2000/svg" xmlns:xlink="http://www.w3.org/1999/xlink" x="0px" y="0px"
	 viewBox="0 0 512 512" style="enable-background:new 0 0 512 512;" xml:space="preserve">
<circle style="fill:#005ECE;" cx="256" cy="256" r="256"/>
<path style="fill:#00479B;" d="M228.641,193.779c0,0,0.018,0.019,0.028,0.028v12.217l-57.451-57.878h-28.26v18.84
	c0.161,0.11,46.632,46.191,46.632,46.191l-18.371,18.371l43.371,43.371c-8.33,9.61-13.371,22.148-13.371,35.864l-0.012,2.169
	l-40.626-40.626C150.644,262.247,136.834,256,121.565,256c-30.256,0-54.783,24.527-54.783,54.783v73.652l13.357,12.8l0.035,14.591
	l82.922,82.795c0.109,0.042,0.218,0.085,0.326,0.127h0.23v0.089C192.299,505.922,223.44,512,256,512c141.384,0,256-114.616,256-256
	c0-0.402-0.001-0.802-0.003-1.203L329.983,72.783l-18.371,18.371L265.42,44.522h-18.84v28.261l33.948,33.391v0.404
	c-7.249-4.078-15.616-6.404-24.527-6.404c-12.299,0-23.563,4.431-32.284,11.785l-19.193-19.193l-19.984-19.984l-13.322,13.323
	l40.573,40.573c-3.763,7.033-5.898,15.069-5.898,23.604c0,13.979,5.725,26.618,14.957,35.706L228.641,193.779z"/>
<path style="fill:#FFFFFF;" d="M297.392,411.826h-82.783V398.13c0-18.154,14.717-32.869,32.869-32.869h17.044
	c18.154,0,32.869,14.717,32.869,32.869V411.826z"/>
<path style="fill:#E1E3FA;" d="M264.521,365.261H256v46.565h41.392V398.13C297.392,379.977,282.675,365.261,264.521,365.261z"/>
<polygon points="249.924,398.435 256,406.653 256,406.721 256,406.721 256,406.653 256,406.653 262.076,398.435 259.184,376.006 
	266.348,365.261 245.652,365.261 252.816,376.006 "/>
<path style="fill:#1D1D1F;" d="M256,256L256,256c-30.256,0-54.783,24.527-54.783,54.783v21.914h109.566v-21.914
	C310.783,280.527,286.256,256,256,256z"/>
<path id="SVGCleanerId_0" d="M256,256L256,256v76.695h54.783v-21.914C310.783,280.527,286.256,256,256,256z"/>
<g>
	<path id="SVGCleanerId_0_1_" d="M256,256L256,256v76.695h54.783v-21.914C310.783,280.527,286.256,256,256,256z"/>
</g>
<path style="fill:#FFC477;" d="M223.131,343.652h-12.052c-5.424,0-9.86-4.438-9.86-9.86V331.6c0-5.424,4.438-9.86,9.86-9.86h12.052
	V343.652z"/>
<path style="fill:#FFB655;" d="M288.869,343.652h12.052c5.424,0,9.86-4.438,9.86-9.86V331.6c0-5.424-4.438-9.86-9.86-9.86h-12.052
	V343.652z"/>
<path style="fill:#FFDAAA;" d="M274.175,304.647c-1.741-1.306-3.383-2.681-4.93-4.112c-15.626,10.148-34.011,15.726-53.052,15.726
	H207c-0.199,1.799-0.305,3.626-0.305,5.478c0,27.229,22.074,49.304,49.304,49.304s49.305-22.074,49.305-49.304
	c0-1.868-0.108-3.711-0.309-5.525C294.9,315.806,283.925,311.959,274.175,304.647z"/>
<path style="fill:#FFC477;" d="M304.994,316.215c-10.095-0.409-21.069-4.255-30.819-11.568c-1.741-1.306-3.383-2.681-4.93-4.112
	c-4.226,2.745-8.656,5.152-13.245,7.208v63.3c27.229,0,49.305-22.074,49.305-49.304
	C305.304,319.871,305.197,318.029,304.994,316.215z"/>
<circle cx="230.211" cy="320.49" r="7.076"/>
<circle cx="281.789" cy="320.49" r="7.076"/>
<path style="fill:#F072AE;" d="M256,351.757c9.077,0,16.435-7.358,16.435-16.435h-32.869
	C239.565,344.399,246.923,351.757,256,351.757z"/>
<path style="fill:#ED539D;" d="M256,335.322v16.435c9.077,0,16.435-7.358,16.435-16.435H256z"/>
<path style="fill:#1D1D1F;" d="M121.565,256L121.565,256c-30.256,0-54.783,24.527-54.783,54.783v73.652h109.566v-73.652
	C176.348,280.527,151.821,256,121.565,256z"/>
<path d="M121.565,256L121.565,256v128.435h54.783v-73.652C176.348,280.527,151.821,256,121.565,256z"/>
<path style="fill:#FFFFFF;" d="M162.956,411.826H80.174v-13.614c0-18.198,14.753-32.952,32.952-32.952h16.879
	c18.198,0,32.952,14.753,32.952,32.952V411.826z"/>
<path style="fill:#E1E3FA;" d="M130.005,365.261h-8.439v46.565h41.392v-13.614C162.956,380.014,148.204,365.261,130.005,365.261z"/>
<rect x="102.155" y="360.092" style="fill:#C4C8F5;" width="38.348" height="21.914"/>
<polygon style="fill:#FFC477;" points="138,357.896 121.565,390.765 105.13,357.896 "/>
<polygon style="fill:#FFB655;" points="121.565,357.896 121.565,390.765 138,357.896 "/>
<path style="fill:#FFC477;" d="M88.696,343.652H76.643c-5.424,0-9.86-4.438-9.86-9.86V331.6c0-5.424,4.438-9.86,9.86-9.86h12.052
	v21.913H88.696z"/>
<path style="fill:#FFB655;" d="M154.435,343.652h12.052c5.424,0,9.86-4.438,9.86-9.86V331.6c0-5.424-4.438-9.86-9.86-9.86h-12.052
	V343.652z"/>
<path style="fill:#FFDAAA;" d="M139.74,304.647c-1.741-1.306-3.383-2.681-4.93-4.112c-15.626,10.148-34.011,15.726-53.052,15.726
	h-9.193c-0.199,1.799-0.305,3.626-0.305,5.478c0,27.229,22.074,49.304,49.304,49.304s49.304-22.074,49.304-49.304
	c0-1.868-0.108-3.711-0.309-5.525C160.464,315.806,149.491,311.959,139.74,304.647z"/>
<path style="fill:#FFC477;" d="M170.559,316.215c-10.095-0.409-21.069-4.255-30.819-11.568c-1.741-1.306-3.383-2.681-4.93-4.112
	c-4.226,2.745-8.656,5.152-13.245,7.208v63.3c27.231,0,49.304-22.074,49.304-49.304C170.87,319.871,170.762,318.029,170.559,316.215
	z"/>
<circle cx="95.777" cy="320.49" r="7.076"/>
<circle cx="147.356" cy="320.49" r="7.076"/>
<path style="fill:#F072AE;" d="M121.565,351.757c9.077,0,16.435-7.358,16.435-16.435h-32.87
	C105.13,344.399,112.489,351.757,121.565,351.757z"/>
<path style="fill:#ED539D;" d="M121.565,335.322v16.435c9.077,0,16.435-7.358,16.435-16.435H121.565z"/>
<path style="fill:#1D1D1F;" d="M388.696,256L388.696,256c-30.256,0-54.783,24.527-54.783,54.783v73.652h109.566v-73.652
	C443.479,280.527,418.952,256,388.696,256z"/>
<path d="M388.696,256L388.696,256v128.435h54.783v-73.652C443.479,280.527,418.952,256,388.696,256z"/>
<path style="fill:#FFFFFF;" d="M430.087,411.826h-82.783v-13.614c0-18.198,14.753-32.952,32.952-32.952h16.879
	c18.198,0,32.952,14.753,32.952,32.952L430.087,411.826L430.087,411.826z"/>
<path style="fill:#E1E3FA;" d="M397.135,365.261h-8.439v46.565h41.392v-13.614C430.087,380.014,415.334,365.261,397.135,365.261z"/>
<rect x="369.286" y="360.092" style="fill:#C4C8F5;" width="38.348" height="21.914"/>
<polygon style="fill:#FFC477;" points="405.13,357.896 388.696,390.765 372.261,357.896 "/>
<polygon style="fill:#FFB655;" points="388.696,357.896 388.696,390.765 405.13,357.896 "/>
<path style="fill:#FFC477;" d="M355.827,343.428h-12.052c-5.424,0-9.86-4.438-9.86-9.86v-2.192c0-5.424,4.438-9.86,9.86-9.86h12.052
	V343.428z"/>
<path style="fill:#FFB655;" d="M421.565,343.428h12.052c5.424,0,9.86-4.438,9.86-9.86v-2.192c0-5.424-4.438-9.86-9.86-9.86h-12.052
	V343.428z"/>
<path style="fill:#FFDAAA;" d="M406.871,304.422c-1.741-1.306-3.383-2.681-4.93-4.112c-15.626,10.148-34.011,15.726-53.052,15.726
	h-9.193c-0.199,1.799-0.305,3.626-0.305,5.478c0,27.231,22.074,49.304,49.305,49.304c27.229,0,49.304-22.074,49.304-49.304
	c0-1.868-0.108-3.711-0.309-5.525C427.595,315.582,416.621,311.735,406.871,304.422z"/>
<path style="fill:#FFC477;" d="M437.69,315.99c-10.095-0.408-21.069-4.255-30.819-11.568c-1.741-1.306-3.383-2.681-4.93-4.112
	c-4.226,2.745-8.656,5.152-13.245,7.208v63.3c27.229,0,49.304-22.074,49.304-49.305C438,319.647,437.892,317.804,437.69,315.99z"/>
<circle cx="362.908" cy="320.49" r="7.076"/>
<circle cx="414.486" cy="320.49" r="7.076"/>
<path style="fill:#F072AE;" d="M388.696,351.757c9.077,0,16.435-7.358,16.435-16.435h-32.869
	C372.261,344.399,379.619,351.757,388.696,351.757z"/>
<path style="fill:#ED539D;" d="M388.696,335.322v16.435c9.077,0,16.435-7.358,16.435-16.435H388.696z"/>
<polygon style="fill:#898890;" points="278.776,210.963 233.224,210.963 246.89,233.739 265.11,233.739 "/>
<polygon style="fill:#57565C;" points="256,210.963 256,233.739 265.11,233.739 278.776,210.963 "/>
<rect x="233.227" y="188.182" style="fill:#C6C5CA;" width="45.552" height="37.12"/>
<rect x="256" y="188.182" style="fill:#ACABB1;" width="22.776" height="37.12"/>
<path style="fill:#9BFBFF;" d="M306.107,150.281c0-27.674-22.433-50.107-50.107-50.107s-50.107,22.433-50.107,50.107
	c0,17.589,9.065,33.06,22.776,42.001v16.242h54.663v-16.242C297.042,183.341,306.107,167.87,306.107,150.281z"/>
<path style="fill:#46F8FF;" d="M256,100.174v108.349h27.331v-16.242c13.712-8.941,22.776-24.411,22.776-42.001
	C306.107,122.607,283.674,100.174,256,100.174z"/>
<g>
	<path style="fill:#FFFFFF;" d="M270.316,149.929c0-7.894-6.422-14.316-14.316-14.316s-14.316,6.422-14.316,14.316
		c0,6.725,4.668,12.367,10.93,13.894v44.699h6.772v-44.699C265.648,162.296,270.316,156.655,270.316,149.929z M256,157.087
		c-3.947,0-7.158-3.211-7.158-7.158s3.211-7.158,7.158-7.158s7.158,3.211,7.158,7.158S259.947,157.087,256,157.087z"/>
	<rect x="142.959" y="148.146" style="fill:#FFFFFF;" width="28.261" height="18.84"/>
	<rect x="340.781" y="148.146" style="fill:#FFFFFF;" width="28.261" height="18.84"/>
	
		<rect x="312.517" y="218.803" transform="matrix(0.7071 0.7071 -0.7071 0.7071 257.0511 -164.1299)" style="fill:#FFFFFF;" width="28.261" height="18.84"/>
	
		<rect x="173.739" y="80.018" transform="matrix(0.7071 0.7071 -0.7071 0.7071 118.268 -106.648)" style="fill:#FFFFFF;" width="28.261" height="18.84"/>
	
		<rect x="173.726" y="218.799" transform="matrix(-0.7071 0.7071 -0.7071 -0.7071 482.0668 256.7604)" style="fill:#FFFFFF;" width="28.261" height="18.84"/>
	
		<rect x="312.519" y="80.014" transform="matrix(-0.7071 0.7071 -0.7071 -0.7071 620.8641 -78.3026)" style="fill:#FFFFFF;" width="28.261" height="18.84"/>
	<rect x="246.584" y="44.522" style="fill:#FFFFFF;" width="18.84" height="28.261"/>
</g>
<g>
</g>
<g>
</g>
<g>
</g>
<g>
</g>
<g>
</g>
<g>
</g>
<g>
</g>
<g>
</g>
<g>
</g>
<g>
</g>
<g>
</g>
<g>
</g>
<g>
</g>
<g>
</g>
<g>
</g>
</svg>
